<svg width="249" height="13" viewBox="0 0 249 13" fill="none" xmlns="http://www.w3.org/2000/svg">
<path opacity="0.5" d="M0.759638 12V3.27273H3.7085C4.39316 3.27273 4.95282 3.39631 5.38748 3.64347C5.82498 3.88778 6.14884 4.21875 6.35907 4.63636C6.5693 5.05398 6.67441 5.51989 6.67441 6.03409C6.67441 6.5483 6.5693 7.01562 6.35907 7.43608C6.15168 7.85653 5.83066 8.19176 5.396 8.44176C4.96134 8.68892 4.40452 8.8125 3.72555 8.8125H1.61191V7.875H3.69146C4.16021 7.875 4.53663 7.79403 4.82072 7.6321C5.10481 7.47017 5.31077 7.25142 5.43862 6.97585C5.5693 6.69744 5.63464 6.38352 5.63464 6.03409C5.63464 5.68466 5.5693 5.37216 5.43862 5.09659C5.31077 4.82102 5.10339 4.60511 4.81646 4.44886C4.52952 4.28977 4.14884 4.21023 3.67441 4.21023H1.81646V12H0.759638ZM8.61682 12V3.27273H11.5657C12.2475 3.27273 12.8072 3.3892 13.2447 3.62216C13.6822 3.85227 14.006 4.16903 14.2163 4.57244C14.4265 4.97585 14.5316 5.43466 14.5316 5.94886C14.5316 6.46307 14.4265 6.91903 14.2163 7.31676C14.006 7.71449 13.6836 8.02699 13.2489 8.25426C12.8143 8.47869 12.2589 8.59091 11.5827 8.59091H9.19637V7.63636H11.5486C12.0146 7.63636 12.3896 7.56818 12.6736 7.43182C12.9606 7.29545 13.168 7.10227 13.2958 6.85227C13.4265 6.59943 13.4918 6.2983 13.4918 5.94886C13.4918 5.59943 13.4265 5.29403 13.2958 5.03267C13.1651 4.77131 12.9563 4.5696 12.6694 4.42756C12.3824 4.28267 12.0032 4.21023 11.5316 4.21023H9.67364V12H8.61682ZM12.7248 8.07955L14.8725 12H13.6452L11.5316 8.07955H12.7248ZM23.8962 7.63636C23.8962 8.55682 23.73 9.35227 23.3977 10.0227C23.0653 10.6932 22.6093 11.2102 22.0298 11.5739C21.4502 11.9375 20.7883 12.1193 20.044 12.1193C19.2996 12.1193 18.6377 11.9375 18.0582 11.5739C17.4786 11.2102 17.0227 10.6932 16.6903 10.0227C16.3579 9.35227 16.1917 8.55682 16.1917 7.63636C16.1917 6.71591 16.3579 5.92045 16.6903 5.25C17.0227 4.57955 17.4786 4.0625 18.0582 3.69886C18.6377 3.33523 19.2996 3.15341 20.044 3.15341C20.7883 3.15341 21.4502 3.33523 22.0298 3.69886C22.6093 4.0625 23.0653 4.57955 23.3977 5.25C23.73 5.92045 23.8962 6.71591 23.8962 7.63636ZM22.8735 7.63636C22.8735 6.88068 22.7471 6.2429 22.4943 5.72301C22.2443 5.20312 21.9048 4.80966 21.4758 4.54261C21.0496 4.27557 20.5724 4.14205 20.044 4.14205C19.5156 4.14205 19.0369 4.27557 18.6079 4.54261C18.1818 4.80966 17.8423 5.20312 17.5894 5.72301C17.3394 6.2429 17.2144 6.88068 17.2144 7.63636C17.2144 8.39205 17.3394 9.02983 17.5894 9.54972C17.8423 10.0696 18.1818 10.4631 18.6079 10.7301C19.0369 10.9972 19.5156 11.1307 20.044 11.1307C20.5724 11.1307 21.0496 10.9972 21.4758 10.7301C21.9048 10.4631 22.2443 10.0696 22.4943 9.54972C22.7471 9.02983 22.8735 8.39205 22.8735 7.63636ZM31.8791 6C31.7854 5.71307 31.6618 5.45597 31.5084 5.22869C31.3578 4.99858 31.1774 4.80256 30.9672 4.64062C30.7598 4.47869 30.524 4.35511 30.2598 4.26989C29.9956 4.18466 29.7058 4.14205 29.3905 4.14205C28.8735 4.14205 28.4033 4.27557 27.98 4.54261C27.5567 4.80966 27.2201 5.20312 26.9701 5.72301C26.7201 6.2429 26.5951 6.88068 26.5951 7.63636C26.5951 8.39205 26.7215 9.02983 26.9743 9.54972C27.2272 10.0696 27.5695 10.4631 28.0013 10.7301C28.4331 10.9972 28.9189 11.1307 29.4587 11.1307C29.9587 11.1307 30.399 11.0241 30.7797 10.8111C31.1632 10.5952 31.4615 10.2912 31.6746 9.89915C31.8905 9.50426 31.9985 9.03977 31.9985 8.50568L32.3223 8.57386H29.6973V7.63636H33.0212V8.57386C33.0212 9.29261 32.8678 9.91761 32.561 10.4489C32.257 10.9801 31.8365 11.392 31.2996 11.6847C30.7655 11.9744 30.1519 12.1193 29.4587 12.1193C28.686 12.1193 28.007 11.9375 27.4218 11.5739C26.8394 11.2102 26.3848 10.6932 26.0581 10.0227C25.7343 9.35227 25.5723 8.55682 25.5723 7.63636C25.5723 6.94602 25.6647 6.32528 25.8493 5.77415C26.0368 5.22017 26.301 4.74858 26.6419 4.35938C26.9828 3.97017 27.3862 3.67188 27.8522 3.46449C28.3181 3.2571 28.8308 3.15341 29.3905 3.15341C29.8507 3.15341 30.2797 3.22301 30.6774 3.36222C31.078 3.49858 31.4345 3.69318 31.747 3.94602C32.0624 4.19602 32.3252 4.49574 32.5354 4.84517C32.7456 5.19176 32.8905 5.5767 32.9701 6H31.8791ZM35.0712 12V3.27273H38.0201C38.7019 3.27273 39.2615 3.3892 39.699 3.62216C40.1365 3.85227 40.4604 4.16903 40.6706 4.57244C40.8809 4.97585 40.986 5.43466 40.986 5.94886C40.986 6.46307 40.8809 6.91903 40.6706 7.31676C40.4604 7.71449 40.138 8.02699 39.7033 8.25426C39.2686 8.47869 38.7132 8.59091 38.0371 8.59091H35.6507V7.63636H38.003C38.4689 7.63636 38.8439 7.56818 39.128 7.43182C39.4149 7.29545 39.6223 7.10227 39.7502 6.85227C39.8809 6.59943 39.9462 6.2983 39.9462 5.94886C39.9462 5.59943 39.8809 5.29403 39.7502 5.03267C39.6195 4.77131 39.4107 4.5696 39.1238 4.42756C38.8368 4.28267 38.4576 4.21023 37.986 4.21023H36.128V12H35.0712ZM39.1792 8.07955L41.3269 12H40.0996L37.986 8.07955H39.1792ZM43.3449 12H42.237L45.4415 3.27273H46.5324L49.737 12H48.629L46.0211 4.65341H45.9529L43.3449 12ZM43.754 8.59091H48.2199V9.52841H43.754V8.59091ZM51.3364 3.27273H52.5977L55.5636 10.517H55.6659L58.6318 3.27273H59.8932V12H58.9045V5.36932H58.8193L56.092 12H55.1375L52.4102 5.36932H52.325V12H51.3364V3.27273ZM62.6101 12H61.5021L64.7067 3.27273H65.7976L69.0021 12H67.8942L65.2862 4.65341H65.218L62.6101 12ZM63.0192 8.59091H67.4851V9.52841H63.0192V8.59091ZM75.2733 3.27273V12H74.2165V3.27273H75.2733ZM84.5527 3.27273V12H83.53L78.7743 5.14773H78.6891V12H77.6323V3.27273H78.655L83.4277 10.142H83.513V3.27273H84.5527ZM86.9074 12V3.27273H92.1745V4.21023H87.9643V7.15909H91.9018V8.09659H87.9643V11.0625H92.2427V12H86.9074ZM89.0722 2.38636L90.112 0.409091H91.2881L89.9586 2.38636H89.0722ZM97.0125 12H94.3193V3.27273H97.1318C97.9784 3.27273 98.7029 3.44744 99.3051 3.79688C99.9074 4.14347 100.369 4.64205 100.69 5.29261C101.011 5.94034 101.172 6.71591 101.172 7.61932C101.172 8.52841 101.01 9.31108 100.686 9.96733C100.362 10.6207 99.8904 11.1236 99.271 11.4759C98.6517 11.8253 97.8989 12 97.0125 12ZM95.3761 11.0625H96.9443C97.6659 11.0625 98.2639 10.9233 98.7384 10.6449C99.2128 10.3665 99.5665 9.97017 99.7994 9.45597C100.032 8.94176 100.149 8.32955 100.149 7.61932C100.149 6.91477 100.034 6.30824 99.8037 5.79972C99.5736 5.28835 99.2298 4.89631 98.7725 4.62358C98.3151 4.34801 97.7455 4.21023 97.0636 4.21023H95.3761V11.0625ZM104.241 3.27273V12H103.184V3.27273H104.241ZM106.123 4.21023V3.27273H112.668V4.21023H109.924V12H108.867V4.21023H106.123ZM121.54 7.63636C121.54 8.55682 121.373 9.35227 121.041 10.0227C120.709 10.6932 120.253 11.2102 119.673 11.5739C119.094 11.9375 118.432 12.1193 117.687 12.1193C116.943 12.1193 116.281 11.9375 115.702 11.5739C115.122 11.2102 114.666 10.6932 114.334 10.0227C114.001 9.35227 113.835 8.55682 113.835 7.63636C113.835 6.71591 114.001 5.92045 114.334 5.25C114.666 4.57955 115.122 4.0625 115.702 3.69886C116.281 3.33523 116.943 3.15341 117.687 3.15341C118.432 3.15341 119.094 3.33523 119.673 3.69886C120.253 4.0625 120.709 4.57955 121.041 5.25C121.373 5.92045 121.54 6.71591 121.54 7.63636ZM120.517 7.63636C120.517 6.88068 120.391 6.2429 120.138 5.72301C119.888 5.20312 119.548 4.80966 119.119 4.54261C118.693 4.27557 118.216 4.14205 117.687 4.14205C117.159 4.14205 116.68 4.27557 116.251 4.54261C115.825 4.80966 115.486 5.20312 115.233 5.72301C114.983 6.2429 114.858 6.88068 114.858 7.63636C114.858 8.39205 114.983 9.02983 115.233 9.54972C115.486 10.0696 115.825 10.4631 116.251 10.7301C116.68 10.9972 117.159 11.1307 117.687 11.1307C118.216 11.1307 118.693 10.9972 119.119 10.7301C119.548 10.4631 119.888 10.0696 120.138 9.54972C120.391 9.02983 120.517 8.39205 120.517 7.63636ZM129.865 12H127.172V3.27273H129.984C130.831 3.27273 131.555 3.44744 132.157 3.79688C132.76 4.14347 133.221 4.64205 133.542 5.29261C133.863 5.94034 134.024 6.71591 134.024 7.61932C134.024 8.52841 133.862 9.31108 133.538 9.96733C133.214 10.6207 132.743 11.1236 132.123 11.4759C131.504 11.8253 130.751 12 129.865 12ZM128.228 11.0625H129.797C130.518 11.0625 131.116 10.9233 131.591 10.6449C132.065 10.3665 132.419 9.97017 132.652 9.45597C132.885 8.94176 133.001 8.32955 133.001 7.61932C133.001 6.91477 132.886 6.30824 132.656 5.79972C132.426 5.28835 132.082 4.89631 131.625 4.62358C131.167 4.34801 130.598 4.21023 129.916 4.21023H128.228V11.0625ZM136.037 12V3.27273H141.304V4.21023H137.093V7.15909H141.031V8.09659H137.093V11.0625H141.372V12H136.037ZM148.221 5.45455C148.17 5.02273 147.963 4.6875 147.599 4.44886C147.235 4.21023 146.789 4.09091 146.261 4.09091C145.875 4.09091 145.537 4.15341 145.247 4.27841C144.96 4.40341 144.735 4.57528 144.574 4.79403C144.414 5.01278 144.335 5.26136 144.335 5.53977C144.335 5.77273 144.39 5.97301 144.501 6.14062C144.615 6.3054 144.76 6.44318 144.936 6.55398C145.112 6.66193 145.297 6.75142 145.49 6.82244C145.683 6.89062 145.86 6.94602 146.022 6.98864L146.909 7.22727C147.136 7.28693 147.389 7.36932 147.667 7.47443C147.949 7.57955 148.217 7.72301 148.473 7.90483C148.731 8.08381 148.944 8.31392 149.112 8.59517C149.28 8.87642 149.363 9.22159 149.363 9.63068C149.363 10.1023 149.24 10.5284 148.993 10.9091C148.748 11.2898 148.39 11.5923 147.919 11.8168C147.45 12.0412 146.88 12.1534 146.21 12.1534C145.585 12.1534 145.044 12.0526 144.586 11.8509C144.132 11.6491 143.774 11.3679 143.512 11.0071C143.254 10.6463 143.108 10.2273 143.074 9.75H144.164C144.193 10.0795 144.304 10.3523 144.497 10.5682C144.693 10.7812 144.94 10.9403 145.238 11.0455C145.539 11.1477 145.863 11.1989 146.21 11.1989C146.613 11.1989 146.976 11.1335 147.297 11.0028C147.618 10.8693 147.872 10.6847 148.059 10.4489C148.247 10.2102 148.341 9.93182 148.341 9.61364C148.341 9.32386 148.26 9.08807 148.098 8.90625C147.936 8.72443 147.723 8.5767 147.458 8.46307C147.194 8.34943 146.909 8.25 146.602 8.16477L145.528 7.85795C144.846 7.66193 144.306 7.3821 143.909 7.01847C143.511 6.65483 143.312 6.17898 143.312 5.59091C143.312 5.10227 143.444 4.67614 143.708 4.3125C143.976 3.94602 144.333 3.66193 144.782 3.46023C145.234 3.25568 145.738 3.15341 146.295 3.15341C146.858 3.15341 147.358 3.25426 147.795 3.45597C148.233 3.65483 148.579 3.92756 148.835 4.27415C149.093 4.62074 149.23 5.0142 149.244 5.45455H148.221ZM151.341 12V3.27273H156.608V4.21023H152.398V7.15909H156.335V8.09659H152.398V11.0625H156.676V12H151.341ZM165.673 3.27273V12H164.65L159.895 5.14773H159.81V12H158.753V3.27273H159.775L164.548 10.142H164.633V3.27273H165.673ZM168.386 3.27273L170.977 10.6193H171.079L173.67 3.27273H174.778L171.573 12H170.482L167.278 3.27273H168.386ZM183.331 7.63636C183.331 8.55682 183.165 9.35227 182.832 10.0227C182.5 10.6932 182.044 11.2102 181.464 11.5739C180.885 11.9375 180.223 12.1193 179.479 12.1193C178.734 12.1193 178.072 11.9375 177.493 11.5739C176.913 11.2102 176.457 10.6932 176.125 10.0227C175.792 9.35227 175.626 8.55682 175.626 7.63636C175.626 6.71591 175.792 5.92045 176.125 5.25C176.457 4.57955 176.913 4.0625 177.493 3.69886C178.072 3.33523 178.734 3.15341 179.479 3.15341C180.223 3.15341 180.885 3.33523 181.464 3.69886C182.044 4.0625 182.5 4.57955 182.832 5.25C183.165 5.92045 183.331 6.71591 183.331 7.63636ZM182.308 7.63636C182.308 6.88068 182.182 6.2429 181.929 5.72301C181.679 5.20312 181.339 4.80966 180.91 4.54261C180.484 4.27557 180.007 4.14205 179.479 4.14205C178.95 4.14205 178.471 4.27557 178.042 4.54261C177.616 4.80966 177.277 5.20312 177.024 5.72301C176.774 6.2429 176.649 6.88068 176.649 7.63636C176.649 8.39205 176.774 9.02983 177.024 9.54972C177.277 10.0696 177.616 10.4631 178.042 10.7301C178.471 10.9972 178.95 11.1307 179.479 11.1307C180.007 11.1307 180.484 10.9972 180.91 10.7301C181.339 10.4631 181.679 10.0696 181.929 9.54972C182.182 9.02983 182.308 8.39205 182.308 7.63636ZM185.348 12V3.27273H186.405V11.0625H190.461V12H185.348ZM191.875 3.27273L194.466 10.6193H194.569L197.159 3.27273H198.267L195.063 12H193.972L190.767 3.27273H191.875ZM200.924 3.27273V12H199.867V3.27273H200.924ZM205.976 12H203.283V3.27273H206.095C206.942 3.27273 207.666 3.44744 208.268 3.79688C208.871 4.14347 209.332 4.64205 209.653 5.29261C209.974 5.94034 210.135 6.71591 210.135 7.61932C210.135 8.52841 209.973 9.31108 209.649 9.96733C209.325 10.6207 208.854 11.1236 208.234 11.4759C207.615 11.8253 206.862 12 205.976 12ZM204.339 11.0625H205.908C206.629 11.0625 207.227 10.9233 207.702 10.6449C208.176 10.3665 208.53 9.97017 208.763 9.45597C208.996 8.94176 209.112 8.32955 209.112 7.61932C209.112 6.91477 208.997 6.30824 208.767 5.79972C208.537 5.28835 208.193 4.89631 207.736 4.62358C207.278 4.34801 206.709 4.21023 206.027 4.21023H204.339V11.0625ZM219.511 7.63636C219.511 8.55682 219.345 9.35227 219.013 10.0227C218.68 10.6932 218.224 11.2102 217.645 11.5739C217.065 11.9375 216.403 12.1193 215.659 12.1193C214.915 12.1193 214.253 11.9375 213.673 11.5739C213.094 11.2102 212.638 10.6932 212.305 10.0227C211.973 9.35227 211.807 8.55682 211.807 7.63636C211.807 6.71591 211.973 5.92045 212.305 5.25C212.638 4.57955 213.094 4.0625 213.673 3.69886C214.253 3.33523 214.915 3.15341 215.659 3.15341C216.403 3.15341 217.065 3.33523 217.645 3.69886C218.224 4.0625 218.68 4.57955 219.013 5.25C219.345 5.92045 219.511 6.71591 219.511 7.63636ZM218.489 7.63636C218.489 6.88068 218.362 6.2429 218.109 5.72301C217.859 5.20312 217.52 4.80966 217.091 4.54261C216.665 4.27557 216.187 4.14205 215.659 4.14205C215.131 4.14205 214.652 4.27557 214.223 4.54261C213.797 4.80966 213.457 5.20312 213.204 5.72301C212.954 6.2429 212.829 6.88068 212.829 7.63636C212.829 8.39205 212.954 9.02983 213.204 9.54972C213.457 10.0696 213.797 10.4631 214.223 10.7301C214.652 10.9972 215.131 11.1307 215.659 11.1307C216.187 11.1307 216.665 10.9972 217.091 10.7301C217.52 10.4631 217.859 10.0696 218.109 9.54972C218.362 9.02983 218.489 8.39205 218.489 7.63636ZM225.143 12V3.27273H228.092C228.777 3.27273 229.336 3.39631 229.771 3.64347C230.209 3.88778 230.532 4.21875 230.743 4.63636C230.953 5.05398 231.058 5.51989 231.058 6.03409C231.058 6.5483 230.953 7.01562 230.743 7.43608C230.535 7.85653 230.214 8.19176 229.78 8.44176C229.345 8.68892 228.788 8.8125 228.109 8.8125H225.996V7.875H228.075C228.544 7.875 228.92 7.79403 229.204 7.6321C229.488 7.47017 229.694 7.25142 229.822 6.97585C229.953 6.69744 230.018 6.38352 230.018 6.03409C230.018 5.68466 229.953 5.37216 229.822 5.09659C229.694 4.82102 229.487 4.60511 229.2 4.44886C228.913 4.28977 228.532 4.21023 228.058 4.21023H226.2V12H225.143ZM240.364 7.63636C240.364 8.55682 240.198 9.35227 239.865 10.0227C239.533 10.6932 239.077 11.2102 238.498 11.5739C237.918 11.9375 237.256 12.1193 236.512 12.1193C235.767 12.1193 235.106 11.9375 234.526 11.5739C233.946 11.2102 233.49 10.6932 233.158 10.0227C232.826 9.35227 232.66 8.55682 232.66 7.63636C232.66 6.71591 232.826 5.92045 233.158 5.25C233.49 4.57955 233.946 4.0625 234.526 3.69886C235.106 3.33523 235.767 3.15341 236.512 3.15341C237.256 3.15341 237.918 3.33523 238.498 3.69886C239.077 4.0625 239.533 4.57955 239.865 5.25C240.198 5.92045 240.364 6.71591 240.364 7.63636ZM239.341 7.63636C239.341 6.88068 239.215 6.2429 238.962 5.72301C238.712 5.20312 238.373 4.80966 237.944 4.54261C237.517 4.27557 237.04 4.14205 236.512 4.14205C235.983 4.14205 235.505 4.27557 235.076 4.54261C234.65 4.80966 234.31 5.20312 234.057 5.72301C233.807 6.2429 233.682 6.88068 233.682 7.63636C233.682 8.39205 233.807 9.02983 234.057 9.54972C234.31 10.0696 234.65 10.4631 235.076 10.7301C235.505 10.9972 235.983 11.1307 236.512 11.1307C237.04 11.1307 237.517 10.9972 237.944 10.7301C238.373 10.4631 238.712 10.0696 238.962 9.54972C239.215 9.02983 239.341 8.39205 239.341 7.63636ZM242.381 12V3.27273H245.33C246.012 3.27273 246.571 3.3892 247.009 3.62216C247.446 3.85227 247.77 4.16903 247.98 4.57244C248.191 4.97585 248.296 5.43466 248.296 5.94886C248.296 6.46307 248.191 6.91903 247.98 7.31676C247.77 7.71449 247.448 8.02699 247.013 8.25426C246.578 8.47869 246.023 8.59091 245.347 8.59091H242.961V7.63636H245.313C245.779 7.63636 246.154 7.56818 246.438 7.43182C246.725 7.29545 246.932 7.10227 247.06 6.85227C247.191 6.59943 247.256 6.2983 247.256 5.94886C247.256 5.59943 247.191 5.29403 247.06 5.03267C246.929 4.77131 246.721 4.5696 246.434 4.42756C246.147 4.28267 245.767 4.21023 245.296 4.21023H243.438V12H242.381ZM246.489 8.07955L248.637 12H247.409L245.296 8.07955H246.489Z" fill="#E3E3E3"/>
</svg>
