<?xml version="1.0" standalone="no"?>
<!DOCTYPE svg PUBLIC "-//W3C//DTD SVG 20010904//EN"
 "http://www.w3.org/TR/2001/REC-SVG-20010904/DTD/svg10.dtd">
<svg version="1.0" xmlns="http://www.w3.org/2000/svg"
 width="2270.000000pt" height="2270.000000pt" viewBox="0 0 2270.000000 2270.000000"
 preserveAspectRatio="xMidYMid meet">

<g transform="translate(0.000000,2270.000000) scale(0.100000,-0.100000)"
fill="#000000" stroke="none">
<path d="M10990 22697 c-3 -2 -88 -7 -188 -11 -101 -4 -200 -9 -220 -11 -21
-2 -73 -7 -117 -10 -318 -23 -663 -65 -1020 -125 -1965 -330 -3823 -1188
-5365 -2478 -365 -305 -859 -781 -1160 -1117 -1176 -1314 -2011 -2822 -2489
-4495 -193 -677 -329 -1416 -386 -2105 -8 -104 -17 -210 -20 -234 -26 -257
-26 -1225 0 -1501 3 -25 12 -130 20 -235 76 -919 290 -1905 605 -2790 512
-1437 1292 -2736 2329 -3875 164 -180 590 -602 775 -769 1535 -1378 3368
-2301 5362 -2700 473 -95 797 -138 1469 -196 33 -2 141 -8 240 -11 99 -4 182
-8 184 -10 2 -2 -344 -5 -770 -5 -437 -1 -757 -5 -734 -10 52 -10 3618 -10
3670 0 23 5 -299 9 -739 10 -429 0 -777 3 -775 5 2 2 88 6 191 10 102 4 208 9
235 11 26 2 109 9 183 15 2245 181 4393 1039 6162 2461 532 428 1052 932 1502
1454 1212 1408 2072 3119 2470 4914 131 588 197 1048 250 1726 27 345 28 1155
1 1480 -58 713 -118 1134 -241 1695 -385 1759 -1204 3428 -2365 4820 -308 370
-787 868 -1123 1169 -1281 1148 -2731 1963 -4358 2451 -677 203 -1448 354
-2118 415 -96 8 -193 17 -215 20 -22 2 -94 7 -160 10 -66 4 -136 9 -155 11
-48 7 -924 17 -930 11z m860 -2197 c864 -52 1601 -195 2405 -465 1003 -336
1958 -858 2785 -1520 489 -391 999 -895 1391 -1375 1143 -1397 1858 -3136
2023 -4920 39 -418 50 -1007 26 -1380 -81 -1281 -392 -2445 -950 -3560 -445
-889 -1009 -1670 -1720 -2380 -357 -357 -606 -575 -985 -860 -1291 -971 -2813
-1582 -4410 -1770 -601 -70 -1313 -79 -1915 -24 -1420 129 -2785 591 -4010
1356 -589 367 -1099 776 -1615 1292 -360 361 -590 626 -878 1011 -1392 1865
-2020 4194 -1752 6505 150 1294 572 2528 1252 3663 732 1221 1807 2312 3018
3063 352 218 881 494 1240 646 942 400 1943 642 2930 708 88 6 180 12 205 13
116 8 813 6 960 -3z"/>
<path d="M11075 18830 c-1474 -94 -2806 -569 -3915 -1395 -460 -343 -901 -768
-1255 -1210 -645 -805 -1095 -1717 -1353 -2740 -113 -445 -181 -866 -223
-1380 -17 -209 -23 -1009 -10 -1274 41 -826 179 -1543 439 -2276 435 -1228
1202 -2312 2201 -3113 1022 -820 2249 -1332 3596 -1502 561 -70 1011 -70 1570
1 1880 237 3519 1142 4663 2572 625 781 1079 1705 1336 2714 43 168 136 612
136 648 0 13 -180 15 -1654 15 l-1654 0 -7 -27 c-25 -104 -369 -976 -423
-1073 -57 -104 -223 -346 -318 -465 -114 -143 -369 -398 -509 -509 -199 -159
-468 -327 -684 -428 -388 -182 -780 -295 -1246 -359 -217 -30 -638 -33 -855
-6 -726 90 -1360 355 -1920 801 -154 123 -417 384 -534 531 -511 641 -796
1449 -866 2450 -13 194 -13 896 0 1090 97 1387 651 2491 1580 3150 479 339
1079 562 1725 641 153 18 592 27 745 14 784 -67 1477 -335 2055 -796 141 -112
396 -367 509 -509 113 -142 280 -391 350 -525 30 -58 114 -253 186 -435 73
-181 134 -336 137 -342 4 -10 348 -13 1675 -13 1585 0 1669 1 1664 18 -3 9
-17 71 -31 137 -343 1608 -1219 3045 -2464 4043 -1032 828 -2264 1339 -3631
1507 -350 43 -762 61 -1015 45z"/>
</g>
</svg>
