<?xml version="1.0" standalone="no"?>
<!DOCTYPE svg PUBLIC "-//W3C//DTD SVG 20010904//EN"
 "http://www.w3.org/TR/2001/REC-SVG-20010904/DTD/svg10.dtd">
<svg version="1.0" xmlns="http://www.w3.org/2000/svg"
 width="591.000000pt" height="422.000000pt" viewBox="0 0 591.000000 422.000000"
 preserveAspectRatio="xMidYMid meet">

<g transform="translate(0.000000,422.000000) scale(0.100000,-0.100000)"
fill="#000000" stroke="none">
<path d="M2845 3594 c-279 -41 -476 -153 -629 -358 -49 -65 -93 -161 -117
-255 -17 -66 -38 -253 -39 -346 l0 -30 -88 0 c-65 0 -97 -5 -124 -19 -156 -77
-189 -281 -68 -419 18 -21 77 -67 132 -103 54 -36 102 -71 105 -80 8 -20 -39
-108 -98 -181 -68 -86 -173 -171 -291 -234 -110 -58 -161 -107 -178 -168 -18
-66 12 -144 77 -201 43 -38 155 -93 226 -111 47 -11 87 -46 87 -75 0 -24 74
-97 118 -116 30 -14 83 -22 170 -29 169 -12 228 -29 347 -99 190 -113 294
-144 480 -144 186 0 290 31 480 144 119 70 178 87 347 99 142 10 193 27 245
82 18 19 39 50 47 70 19 45 30 54 86 69 25 6 82 29 126 51 176 84 230 226 129
338 -19 21 -78 61 -133 90 -157 84 -280 197 -357 327 -49 84 -49 84 67 162
161 108 211 177 212 292 1 161 -114 266 -283 258 l-69 -3 -7 124 c-13 230 -61
387 -155 512 -168 224 -405 343 -700 353 -63 3 -128 2 -145 0z m368 -204 c225
-75 386 -243 443 -461 13 -50 17 -116 19 -304 l1 -240 35 1 c19 1 74 16 123
34 103 37 148 36 184 -5 27 -31 28 -76 5 -117 -11 -18 -67 -63 -138 -111 -159
-105 -175 -121 -175 -168 0 -21 10 -64 21 -96 72 -194 245 -377 482 -507 38
-21 71 -44 74 -52 14 -36 -63 -81 -222 -128 -104 -31 -129 -53 -139 -120 -10
-63 -29 -73 -156 -81 -203 -13 -282 -38 -450 -139 -137 -82 -204 -101 -365
-101 -161 1 -230 20 -366 102 -170 102 -244 125 -451 138 -59 4 -114 12 -123
18 -8 7 -22 37 -30 66 -8 30 -22 62 -32 72 -10 10 -58 30 -108 45 -159 47
-236 92 -222 127 3 8 36 31 74 52 117 64 196 121 274 198 121 119 211 269 226
379 10 70 2 81 -137 174 -181 120 -210 158 -178 229 13 30 55 55 90 55 13 0
68 -16 123 -35 55 -19 110 -35 123 -35 l23 0 -7 168 c-13 350 36 523 197 682
61 61 137 110 230 147 100 40 181 53 324 49 115 -3 141 -7 228 -36z"/>
</g>
</svg>
